<?xml version="1.0" encoding="UTF-8"?>
<svg xmlns="http://www.w3.org/2000/svg" xmlns:xlink="http://www.w3.org/1999/xlink" width="375pt" height="374.999991pt" viewBox="0 0 375 374.999991" version="1.2">
<defs>
<clipPath id="clip1">
  <path d="M 91 263 L 166 263 L 166 337.625 L 91 337.625 Z M 91 263 "/>
</clipPath>
<clipPath id="clip2">
  <path d="M 283 130 L 337.460938 130 L 337.460938 185 L 283 185 Z M 283 130 "/>
</clipPath>
<clipPath id="clip3">
  <path d="M 41.960938 42.285156 L 137 42.285156 L 137 137 L 41.960938 137 Z M 41.960938 42.285156 "/>
</clipPath>
</defs>
<g id="surface1">
<path style=" stroke:none;fill-rule:nonzero;fill:rgb(9.01947%,11.759949%,14.898682%);fill-opacity:1;" d="M 242.964844 169.253906 C 244.589844 173.152344 245.5625 177.371094 246.214844 181.59375 L 286.804688 170.550781 C 284.855469 166.980469 283.558594 162.757812 283.558594 158.214844 Z M 242.964844 169.253906 "/>
<path style=" stroke:none;fill-rule:nonzero;fill:rgb(9.01947%,11.759949%,14.898682%);fill-opacity:1;" d="M 140.351562 265.695312 C 144.574219 266.996094 148.472656 269.269531 151.71875 272.191406 L 167.628906 243.941406 C 163.410156 242.316406 159.835938 240.042969 156.265625 237.445312 Z M 140.351562 265.695312 "/>
<path style=" stroke:none;fill-rule:nonzero;fill:rgb(9.01947%,11.759949%,14.898682%);fill-opacity:1;" d="M 154.640625 145.546875 L 126.714844 117.621094 C 124.117188 121.195312 121.195312 124.117188 117.621094 126.714844 L 145.222656 154.316406 C 148.148438 151.070312 151.070312 148.148438 154.640625 145.546875 Z M 154.640625 145.546875 "/>
<g clip-path="url(#clip1)" clip-rule="nonzero">
<path style=" stroke:none;fill-rule:nonzero;fill:rgb(87.838745%,0%,59.21936%);fill-opacity:1;" d="M 151.71875 271.867188 C 148.472656 269.269531 144.574219 266.996094 140.351562 265.371094 C 136.457031 264.074219 132.558594 263.425781 128.339844 263.425781 C 107.878906 263.425781 91.320312 279.984375 91.320312 300.441406 C 91.320312 320.902344 107.878906 337.460938 128.339844 337.460938 C 148.796875 337.460938 165.355469 320.902344 165.355469 300.441406 C 165.355469 289.078125 160.160156 278.6875 151.71875 271.867188 Z M 151.71875 271.867188 "/>
</g>
<g clip-path="url(#clip2)" clip-rule="nonzero">
<path style=" stroke:none;fill-rule:nonzero;fill:rgb(87.838745%,0%,59.21936%);fill-opacity:1;" d="M 310.507812 130.9375 C 295.570312 130.9375 283.558594 142.949219 283.558594 157.886719 C 283.558594 158.214844 283.558594 158.214844 283.558594 158.539062 C 283.558594 163.082031 284.855469 167.304688 286.804688 170.878906 C 291.351562 179.320312 300.117188 184.839844 310.183594 184.839844 C 325.121094 184.839844 337.136719 172.824219 337.136719 157.886719 C 337.136719 142.949219 325.445312 130.9375 310.507812 130.9375 Z M 310.507812 130.9375 "/>
</g>
<g clip-path="url(#clip3)" clip-rule="nonzero">
<path style=" stroke:none;fill-rule:nonzero;fill:rgb(87.838745%,0%,59.21936%);fill-opacity:1;" d="M 89.046875 42.285156 C 63.070312 42.285156 41.960938 63.394531 41.960938 89.371094 C 41.960938 115.347656 63.070312 136.457031 89.046875 136.457031 C 99.761719 136.457031 109.828125 132.882812 117.621094 126.714844 C 121.195312 124.117188 124.117188 120.871094 126.714844 117.621094 C 132.558594 109.828125 136.132812 100.085938 136.132812 89.371094 C 136.132812 63.394531 115.023438 42.285156 89.046875 42.285156 Z M 89.046875 42.285156 "/>
</g>
<path style=" stroke:none;fill-rule:nonzero;fill:rgb(87.838745%,0%,59.21936%);fill-opacity:1;" d="M 246.539062 181.59375 C 245.890625 177.371094 244.589844 173.152344 243.292969 169.253906 C 234.523438 148.148438 214.066406 133.210938 189.710938 133.210938 C 176.398438 133.210938 164.382812 137.753906 154.640625 145.222656 C 151.394531 147.820312 148.148438 150.746094 145.550781 154.316406 C 137.429688 164.382812 132.558594 177.046875 132.558594 190.6875 C 132.558594 209.84375 141.976562 226.730469 156.589844 237.445312 C 160.160156 240.042969 164.058594 242.316406 167.953125 243.941406 C 174.773438 246.863281 182.242188 248.488281 190.035156 248.488281 C 221.859375 248.488281 247.511719 222.832031 247.511719 191.011719 C 247.1875 187.761719 246.863281 184.515625 246.539062 181.59375 Z M 246.539062 181.59375 "/>
</g>
</svg>
